/* XPM */
static char *de4a9b7ed38042fcaa62abe35202f8c3FPb1LxEb8SXEX5Ag[] = {
/* columns rows colors chars-per-pixel */
"64 64 178 2 ",
"   c None",
".  c #191818",
"X  c #1B211E",
"o  c #202020",
"O  c gray13",
"+  c #252525",
"@  c #272727",
"#  c #222925",
"$  c #202B25",
"%  c #232A26",
"&  c #262927",
"*  c #202C26",
"=  c #282828",
"-  c gray17",
";  c #2C2C2C",
":  c #2D2D2D",
">  c #223029",
",  c #21332A",
"<  c #22332A",
"1  c #22362B",
"2  c #29302C",
"3  c #22392D",
"4  c #23392D",
"5  c #223A2D",
"6  c #223A2E",
"7  c #233A2E",
"8  c #233B2F",
"9  c #233C2F",
"0  c #243C30",
"q  c #243D30",
"w  c #243D31",
"e  c #243E31",
"r  c #253F32",
"t  c #283930",
"y  c #2A3931",
"u  c #313131",
"i  c #323332",
"p  c gray20",
"a  c #343434",
"s  c #353535",
"d  c #373737",
"f  c gray22",
"g  c #3A3A3A",
"h  c #264033",
"j  c #264133",
"k  c #274133",
"l  c #274134",
"z  c #274234",
"x  c #274235",
"c  c #294134",
"v  c #2A4135",
"b  c #294235",
"n  c #284335",
"m  c #294336",
"M  c #2C4236",
"N  c #284436",
"B  c #294436",
"V  c #294437",
"C  c #294537",
"Z  c #2A4537",
"A  c #2A4638",
"S  c #2A4738",
"D  c #2B4738",
"F  c #2B4739",
"G  c #2B4839",
"H  c #2B483A",
"J  c #2C483A",
"K  c #2C493A",
"L  c #2C4A3B",
"P  c #2D4A3B",
"I  c #2D4B3B",
"U  c #2D4B3C",
"Y  c #2E4C3C",
"T  c #2E4D3D",
"R  c #2F4D3E",
"E  c #2E4E3E",
"W  c #2F4E3E",
"Q  c #2F4E3F",
"!  c #2F4F3F",
"~  c #334A3E",
"^  c #304F3F",
"/  c #30503F",
"(  c #264B4D",
")  c #274C4E",
"_  c #274D4F",
"`  c #324F40",
"'  c #374D41",
"]  c #305040",
"[  c #315040",
"{  c #305140",
"}  c #315140",
"|  c #315141",
" . c #315241",
".. c #325342",
"X. c #335443",
"o. c #335544",
"O. c #335644",
"+. c #345644",
"@. c #345645",
"#. c #345745",
"$. c #355745",
"%. c #355746",
"&. c #3A5144",
"*. c #355846",
"=. c #355947",
"-. c #365947",
";. c #365A47",
":. c #365A48",
">. c #375B49",
",. c #375C49",
"<. c #385C49",
"1. c #385C4A",
"2. c #385D4A",
"3. c #385E4B",
"4. c #395E4B",
"5. c #395F4B",
"6. c #395F4C",
"7. c #274E50",
"8. c #284E50",
"9. c #284F51",
"0. c #2D585A",
"q. c #305D5F",
"w. c #3A604C",
"e. c #3A604D",
"r. c #3A614D",
"t. c #3B624E",
"y. c #3B634F",
"u. c #3C634F",
"i. c #3D6450",
"p. c #3D6550",
"a. c #3D6551",
"s. c #3E6551",
"d. c #3D6651",
"f. c #3E6651",
"g. c #3E6652",
"h. c #3E6752",
"j. c #3F6853",
"k. c #3F6953",
"l. c #3F6954",
"z. c #336265",
"x. c #336365",
"c. c #346467",
"v. c #346568",
"b. c #36686A",
"n. c #36686B",
"m. c #3B6D68",
"M. c #3C6D68",
"N. c #3C6E69",
"B. c #3D6E6A",
"V. c #3E777A",
"C. c #3F787B",
"Z. c #406753",
"A. c #406954",
"S. c #406A54",
"D. c #406A55",
"F. c #406B55",
"G. c #416B55",
"H. c #416C56",
"J. c #426C56",
"K. c #426D57",
"L. c #426E58",
"P. c #436E58",
"I. c #436F58",
"U. c #436F59",
"Y. c #447059",
"T. c #44705A",
"R. c #44715A",
"E. c #45725B",
"W. c #45735B",
"Q. c #46735C",
"!. c #46745D",
"~. c #47755D",
"^. c #47755E",
"/. c #48765E",
"(. c #48765F",
"). c #497860",
"_. c #4A7961",
"`. c #4A7A62",
/* pixels */
"                                                                                                                                ",
"                                                                                                                                ",
"                                                                                                                                ",
"                                                                                                                                ",
"                                                                                                                                ",
"                                                                                                                                ",
"                                                                                                                                ",
"                                                                                                                                ",
"                                                                                                                                ",
"                                                                                                                                ",
"                                                                                                                                ",
"                                                              h z                                                               ",
"                                                        h b Z Z Z Z b z                                                         ",
"                                                      h Z Z Z G S Z S S b                                                       ",
"                                                      Z Z F G G G G G S S z                                                     ",
"                                                    q Z L L L L G U E L S z                                                     ",
"                                                    q S U ^ / / E ` / ^ L z                                                     ",
"                                                    h S | >.w.,.@.5.5.-.E b                                                     ",
"                                                    e z | u.j.s.e.j.i.@.b q                                                     ",
"                                                    0 o + t -.s.e.e.b - + <                                                     ",
"                                                    5 % : - y u.u.| = p @ 5                                                     ",
"                                                      % - f ; D.Z.~ a a O 5                                                     ",
"                                                      < o p d s.Z.' g + * 0                                                     ",
"                                                      5 , % p Z.K.&.; , 5                                                       ",
"                                                        q S :.D.k.u.E h 9                                                       ",
"                                                        9 S S b G q E z                                                         ",
"                                                          z @.X . k O.q                                                         ",
"                                                          q E e.-.w.z                                                           ",
"                                                            q z z z 9                                                           ",
"                                                              5 5 5                                                             ",
"                                                              :.s.E                                                             ",
"                                                            U 5.O.6.Z                                                           ",
"                                                        e.Y._.Q.s.~.~.K.e.                                                      ",
"                                                      | ..6.I.D.s.j.l.....                                                      ",
"                                                      l.| L I.I.s.l.e.Z :.                                                      ",
"                                                      K.s.  Y.Y.l.~.e.  y.                                                      ",
"                                                      I.    e.Y.s.~.O.  -.K.                                                    ",
"                                                    ,.j.    e.(.K._.|     w.@.                                                  ",
"                                                  ,.e.    h K.I.s.W.u.      @.e.@.E -.5.                                        ",
"                                          -.  E ,.s.      Z 5.-.O.:.5.          K.R.D.K.                                        ",
"                                          5.D.(.R.        z L L G L L           u.K.P.P.,.                                      ",
"                                          D.R.R.s.          Z L L L Z             | u.s.e.@.                                    ",
"                                        #.j.P.Z./           S G L G U               / e.5.                                      ",
"                                          s.5.-.            R.-.S :.R.                ..  ,.                                    ",
"                                          5.-.              (.I.  R.Q.                                                          ",
"                                            @.              j.:.  5.e.                                                          ",
"                                                            E E   L E                                                           ",
"                                                            -.-.  -.-.                                                          ",
"                                                            s.y.  s.s.                                                          ",
"                                                            | /   ^ |                                                           ",
"                                                            E /   / E                                                           ",
"                                                            j.s.  s.j.                                                          ",
"                                                            B.m.  m.B.                                                          ",
"                                                            C.C.  C.C.                                                          ",
"                                                            v.v.  x.x.                                                          ",
"                                                            8.8.  _ 8.                                                          ",
"                                                            ( _   ( _                                                           ",
"                                                          0.b.v.  x.b.q.                                                        ",
"                                                                                                                                ",
"                                                                                                                                ",
"                                                                                                                                ",
"                                                                                                                                ",
"                                                                                                                                ",
"                                                                                                                                "
};
