/* XPM */
static char *bd0d40a11ce94321c926bbef2e295c8f3wGubUOsEKUv5WGP[] = {
/* columns rows colors chars-per-pixel */
"64 64 51 1 ",
"  c #3E3E3E",
". c #3F3F3F",
"X c gray25",
"o c #414141",
"O c gray26",
"+ c #434343",
"@ c #444444",
"# c #464646",
"$ c gray28",
"% c #484848",
"& c #494949",
"* c gray29",
"= c #4B4B4B",
"- c #4C4C4C",
"; c gray30",
": c #4E4E4E",
"> c gray31",
", c #505050",
"< c #515151",
"1 c gray32",
"2 c #535353",
"3 c gray33",
"4 c #555555",
"5 c #565656",
"6 c gray34",
"7 c #585858",
"8 c gray35",
"9 c #5A5A5A",
"0 c #5B5B5B",
"q c gray36",
"w c #5D5D5D",
"e c gray37",
"r c #5F5F5F",
"t c #606060",
"y c gray38",
"u c #626262",
"i c gray39",
"p c #646464",
"a c #656565",
"s c gray40",
"d c #676767",
"f c #686868",
"g c #6D6D6D",
"h c gray43",
"j c #6F6F6F",
"k c gray44",
"l c #717171",
"z c #727272",
"x c gray45",
"c c #747474",
"v c gray46",
/* pixels */
"e9eeeee9eee9e9eeeee92>22>22>ee9e22>2@***2>>29eeeeeee9eeeee9eeeee",
"ee9e9ee99eeeee9e99ee2224222>eee9>222**@*22229e9ee9e9eee9e9eee9e9",
"e9ee9eeee9e9eeeeeee922>>>222eeee2222@>**2222etee9eee9e9eeeee9eee",
"e9eee9e9eeee9e9eeee94222222299e922>2**@*>2>2999eeee9eeeee9e9eee9",
"eee94222eeeee9eee9ee9ee99ee94222eeee222222222222ee9eee9e9e9eeeee",
"e9e922>29e9eee9ee9ee9eeeeeee>2>29e9e22>2242>22>2e9eee9eeeeeee9e9",
"eeee2222eee9eeeeeeeee9e999ee>222eeee2222>2222222eeeeeeeeee9e9eee",
"e9e92>2>9eee9e9ee99eeeteee9t222>ee9922>2>22>2224e9e9e9e9e9eeeee9",
"eeeeaaaa22>2tttttttttattfaaf>24>9e94fataatta49444444ttta2>>29eee",
"ee9etaaa2222ttttatatattaataa222>9999faaatttt49949999tttt4222eee9",
"99eeaaaa22>>ttttttttttttffaa2>229499affatatt44444449tttt>2>29eee",
"eetttaat2222aatataatttttatae2222ee9etaaatttt99994999ttet2224ee9e",
"22>>>222XXXX22>249442222424444944442****>**>2444***@**@*9ee9e99e",
"2222222>X@XX22>249942>222>2>44944999**@**@@>4999****>***eee9ee9e",
"22222222@XXX2222494422>2222>94944944@******@9944@*@***@>9e9e9eee",
"2>>2>224XXX 2>2244942>22>22294449499**@*@***4449********9eeeee9e",
"222299e9e9ee@**@242>*@*****@****tttttttt****aett2222@XXXeee9e9ee",
"2222eeeee9ee****>22>****@*******tattattt*@*@ttat>2>>XXXXeeeeee9e",
">>2299eeeeee*@**222>>@@***@*@**@tttttttt@***taat2222@XXXe9e9eeee",
"2222eeee9e9e**@*222>*******>****aataatat****eeee>2>>@XXXeeee9e9e",
"e9e9aaatafafeattttttttttttttttttxjjfatttetttataaeeee22>2xjxjxxjx",
"eeeefafaaatatattttattttatttttttaxxcxtttttttttete9e99>222jxjxxjxj",
"e9e9aaaaafaattettaatattttaattattxfxjttattttataatee9e2222xjxjjxjx",
"eeeeaaaatfaatattttttttttttttttttxjxxatteaetattte9eee22>>jjjxjjjj",
"eee9eeee22>249944994attttattatta22>24944494444492222eeeeeee9ee9e",
"9eee9e9e222244449444tttttttttttt22224449444999492>2>e9e9eee9ee9e",
"e9e9eee9222249994449taatttatttte>>224994994444442>22eeee9e9eeeee",
"eeee9eee>>2244499949ettettttttte22224494494299492>22eee9ee9t9e99",
"e9eee9eeaaatatttettt9499cxxxjxxx44444494>2229e9eaaaajjxxjxjxtttt",
"ee9eee9eaaaatteeatat9444xxxjxjxj49499449>2229eeeataaxjjjjxjx999e",
"eeeeeeeeaaaaataatttt4499jxjxjxjx9494494922229e99aaaajxxxxjjceeee",
"9e9e9e9etaaattttttta4944xjxjxjxj4449449422>2eteeaaaaxjjjxxjx9ee9",
"eeeeeeeee9ee9ee9**@*****X@X@@***949449444994atta222>ee9eeeee9eee",
"e9e9e9e9e9ee9eee****@**@XXXX****494994499444attt2222eee9eeeee9e9",
"9eee9eeeeettee9e******>*XXXX****994449944944tatt22>2eeee99ee9eee",
"eee9eee99999e9ee*@**@*@@XXXX@*@*449444944999tett22229999eeeeeeee",
"9e9eee9etettxjxj949442224222499449949449tttt42229999442222>>*@**",
"eeeee9eee999xjxj49942>2222>2944494494994taat2>2>eeee222>222>**@*",
"ee9eeeeeeet9xjxx499422222222494444444444tttt2222ee9e>222>22>***>",
"e9eee9ee9et9xjxc44942>22>2>2949449949949attt>22>e9ee>2222222**@*",
"9eee9e9eee9eettt49944449944449944992attt42>2>2222>22>222*@**XXXX",
"eee9eeeeeeeetttt29449449944944944942tttt22>222222222>>22*@**XX@X",
"9e9eee9e9e9etttt49499449444494949449taat222222>222242222***@X XX",
"eeeee9eeeeeetaat49449944949944944494etee22>222222>22>>22*@**@@X@",
"eeee9e9e22>24444>2249e9e9ee922229444222>>*>>2494tttt9499@*@*>>>>",
"e9e9eeee22224994>2229eeeeee92>229494*****>>>4949tttt9444****2222",
"9eeeee9e2>22499422>2ee9e9ee922224499>>>2>>>22944ttat9499****>2>>",
"eee9e9ee2>24444422229e9eeee92>229449*>>*>>*>4494attt9444@>*@22>2",
"eeee2222  @X2*>>****t9eetttattttttttttattttttttt99449449e99e2222",
"99e92>22XXXX>>*>***@eee9tttttaatatattttettattatt44444494eeee>22>",
"eee92222XXXX>>>>@***eeeettttttattttattaatttttttt999999449ee92222",
"e9e92>2>X@X@**>>****e9e9attattttttatettttatataat44444942tee922>>",
"222422229e9e9494ttttattatttttteeatat999494494944***>>222@**>4eet",
"2>>2>222eeet4494atattetttattee9etttt944494944994*@@*>222>*@*9ee9",
"4222222>eeee4949tttatatattate9e9tttt949994499444>**>>22>*@**eeee",
"2>22>222e9et2494tttttttetttteeeeatat944444944494@***>222****99ee",
"eeeeeeeeee9e2>222>222>229eeee99e22222222*@*>>222eeeeeeeeeeeee9ee",
"9e9e9e9eeeee222>2>>2>2>29ee9eeee>2>2>>2>****>22>9e9e9e9e9ee99e9e",
"eee9eee9eeee>2>222222222eee9ee9e22222222**@>>222eee9eee9eeeeeeee",
"9eee9eee9eee22>22>222>2>9ee9e99e2>2>2>2>*@**>>229eee9eee9e99ee99",
"e9eee9e9eeee>>22eeeeeeee22249eeeeeeeeeeetee9eeeee9eee9e922249eee",
"ee9eeeeeee9e222>9ee9e9e92>229eeee9e9999eeeeeee99ee9eeeee>>229eee",
"eeeee9eeeeee>2>2eeeeeeee2222eee9eeeeeeee999eeeeeeeeee9ee42229e9e",
"9e9eee9e9e9e22>29eee9ee922>29eee9eee9eeeeeee9eee9e9eee9922>49eee"
};
