/* XPM */
static char *da3c3cc9fcbc46e7cda2f6180a5cb25fyvzSxNGvnfYQfC4B[] = {
/* columns rows colors chars-per-pixel */
"64 64 208 2 ",
"   c #5D5E62",
".  c #606165",
"X  c #626365",
"o  c #616266",
"O  c #626367",
"+  c #636468",
"@  c #646569",
"#  c #65666A",
"$  c #66676B",
"%  c #67686A",
"&  c #67686C",
"*  c #68696D",
"=  c #696A6E",
"-  c #6A6B6F",
";  c #6B6C70",
":  c #6C6D71",
">  c #6E6F71",
",  c #6C6D72",
"<  c #6D6E72",
"1  c #6E6F73",
"2  c #6F7074",
"3  c #707175",
"4  c #717274",
"5  c #717276",
"6  c #727377",
"7  c #737478",
"8  c #747579",
"9  c #75767A",
"0  c #76777B",
"q  c #76777C",
"w  c #77787C",
"e  c #78797D",
"r  c #797A7E",
"t  c #7A7B7F",
"y  c #7A7B80",
"u  c #7B7C80",
"i  c #7C7D81",
"p  c #7D7E80",
"a  c #7D7E82",
"s  c #7D7E83",
"d  c #7E7F83",
"f  c #7E7F84",
"g  c #7F8084",
"h  c #7F8085",
"j  c #808185",
"k  c #818284",
"l  c #828385",
"z  c #818286",
"x  c #818287",
"c  c #828387",
"v  c #848587",
"b  c #838488",
"n  c #848589",
"m  c #84858A",
"M  c #85868A",
"N  c #86878B",
"B  c #87888A",
"V  c #87888C",
"C  c #88898B",
"Z  c #88898D",
"A  c #8A8B8D",
"S  c #88898E",
"D  c #898A8E",
"F  c #8A8B8F",
"G  c #8B8C8E",
"H  c #8B8C90",
"J  c #8C8D91",
"K  c #8D8E92",
"L  c #8E8F93",
"P  c #8F9092",
"I  c #8F9094",
"U  c #909193",
"Y  c #909195",
"T  c #919294",
"R  c #919296",
"E  c #929397",
"W  c #949597",
"Q  c #939498",
"!  c #949599",
"~  c #95969A",
"^  c #96979B",
"/  c #97989C",
"(  c #98999B",
")  c #98999D",
"_  c #9A9B9D",
"`  c #999A9E",
"'  c #999A9F",
"]  c #9A9B9F",
"[  c #9B9C9E",
"{  c #9A9BA0",
"}  c #9B9CA0",
"|  c #9C9DA1",
" . c #9D9EA2",
".. c #9E9FA3",
"X. c #9FA0A4",
"o. c #A0A1A5",
"O. c #A1A2A4",
"+. c #A2A3A5",
"@. c #A1A2A6",
"#. c #A2A3A7",
"$. c #A4A5A7",
"%. c #A3A4A8",
"&. c #A4A5A9",
"*. c #A5A6A8",
"=. c #A6A7A9",
"-. c #A5A6AA",
";. c #A6A7AB",
":. c #A7A8AA",
">. c #A7A8AC",
",. c #A7A8AD",
"<. c #A8A9AB",
"1. c #A8A9AD",
"2. c #AAABAD",
"3. c #A8A9AE",
"4. c #A9AAAE",
"5. c #A9AAAF",
"6. c #AAABAF",
"7. c #ACADAF",
"8. c #AAABB0",
"9. c #ABACB0",
"0. c #ACADB1",
"q. c #AEAFB1",
"w. c #ACADB2",
"e. c #ADAEB2",
"r. c #AEAFB3",
"t. c #AFB0B4",
"y. c #B0B1B3",
"u. c #B0B1B5",
"i. c #B1B2B4",
"p. c #B2B3B5",
"a. c #B1B2B6",
"s. c #B2B3B7",
"d. c #B3B4B6",
"f. c #B4B5B7",
"g. c #B3B4B8",
"h. c #B4B5B9",
"j. c #B5B6B8",
"k. c #B6B7B9",
"l. c #B5B6BA",
"z. c #B6B7BB",
"x. c #B7B8BA",
"c. c #B7B8BC",
"v. c #B8B9BB",
"b. c #B8B9BD",
"n. c #B9BABC",
"m. c #BABBBD",
"M. c #B9BABE",
"N. c #BABBBF",
"B. c #BBBCBE",
"V. c #BCBDBF",
"C. c #BBBCC0",
"Z. c #BCBDC1",
"A. c #BDBEC0",
"S. c #BEBFC1",
"D. c #BDBEC2",
"F. c #BEBFC3",
"G. c #BFC0C2",
"H. c #BFC0C4",
"J. c #C0C1C3",
"K. c #C0C1C5",
"L. c #C1C2C4",
"P. c #C2C3C5",
"I. c #C1C2C6",
"U. c #C2C3C7",
"Y. c #C3C4C6",
"T. c #C4C5C7",
"R. c #C3C4C8",
"E. c #C4C5C9",
"W. c #C5C6C8",
"Q. c #C6C7C9",
"!. c #C5C6CA",
"~. c #C6C7CB",
"^. c #C7C8CA",
"/. c #C7C8CC",
"(. c #C8C9CB",
"). c #C8C9CD",
"_. c #C9CACC",
"`. c #CACBCD",
"'. c #C9CACE",
"]. c #CACBCF",
"[. c #CBCCCE",
"{. c #CCCDCF",
"}. c #CBCCD0",
"|. c #CCCDD1",
" X c #CDCED0",
".X c #CECFD1",
"XX c #CDCED2",
"oX c #CECFD3",
"OX c #CFD0D2",
"+X c #CFD0D4",
"@X c #D0D1D3",
"#X c #D0D1D5",
"$X c #D1D2D4",
"%X c #D2D3D5",
"&X c #D1D2D6",
"*X c #D2D3D7",
"=X c #D3D4D6",
"-X c #D4D5D7",
";X c #D3D4D8",
":X c #D4D5D9",
">X c #D5D6D8",
",X c #D6D7D9",
"<X c #D5D6DA",
"1X c #D6D7DB",
"2X c #D7D8DC",
"3X c #D8D9DB",
"4X c #D8D9DD",
"5X c #D9DADC",
/* pixels */
"3.&.0.r , X [ P..XA.Q K m ' #.;.; & @ { w.C.' M 9 K G..X].3.+.E &.l.C.w.&.{ m 7 i z b 9 i &.c.A.^ L V ..w.A.C.H.a.+./ %.&.T L / ",
"8.3.0.t 2 % O.(.:XF.~ T K +.,.8.1 1 & %.F.E. .i i  .}.:X}.%.&.&.l.A.H.u.8.#.H r M M b g G u.C.P.E E H w.C.I.C.c.t.8.+.8.3.^ ^ Q ",
",.;.:.i 4 4 t.3X*XC.Q /  .3.3.&.; 6 1 a.F.b.{ z H 8.}.*X].3.,.8.C.F.C.8.3.&.Q M z r i z ~ C.A.C.^ { Q c.F.C.F.I.I.C.;.,.#.Q ^ E ",
"0.#. .^ &.7.Q.@XE.t.Q  .%.,.+.' o ; & ;.,.&.w.l.c.a.E H V K Q { +.| E m M H m z i r i h E C.c.8.; 6 6 { { E 8.C.~.C.^ E L I X.#.",
"8.%. .3.A.P.{.{.[.b.+.3.0.0.&.+.& 1 ; #.%. .a.].:Xc., * 4 L T E Q E K i i M z M r 9 i i E C.C.a.@ , 1 ~ ~ H 0.].*XF.T I I ' ,.w.",
",.0.3.C.b.x.(.3X+XG.3.3.3.:.3.,.1 4 1 ..w.3.H.*X;Xw.; 2 w E { ^ E ~ Q V z b i b h z z z L C.H.A., , ; V ~ ' C.1X1XA.~ ~ { 8.w.&.",
"S H S c.A.d.&.+.8. .K M M v S K ;.| K K ^ { F.*XE.l. .w.0.^ L m +.;.w. .~ I S T  .' { Q T 3.w.u.l.0.X...#.3.A.I.C.#.m M ' P.b.u.",
", , 2 t.A.u.T i z r , * * $ , , A.C.t.~ I Q A.+X].H.P.*X}.T E H w.c.A.u.&.X.' +.3.;.3.%./ X.X.w.&X.XR.l.l.C.P.C.c.{ i i ' &X.XE.",
"; 6 ; a.A.C.^ M z 9 , , - ; 2 , A.F.C. .T ^ b.;X*XoX.X1XE.~ Q ^ A.A.C.w.,.:.%.0.3.&.3.w.;.;.;.,.-X-X.XP.F.C.A.A.A.;.z h ' &X:X&X",
", ; * { 8.8.#.X.~ K H ~ ' T K M 0.0.w.| E E t./.}.}.~.}.b.~ ^ ' t.w.w.' ~ / ~ ~ ~ ~ [ X.;.C.c.w.E.{.OXu.,.#.8.l.a.#.M z G b.F.P.",
"6 * . 4 i x &.C.t.3.0.C.P.F.l.t.M S ~ / I V / w.F.H.b.a.w.' 3.w.E I V $ $ 2 i m y i S P -.*X}.A.P.{.@X[ m w K { 8.{ h r f +.;.8.",
", 1 4 r f m ;.R.H.b.A.H.F.A.C.x.Q T / ~ E E 8.I.C.F.P.A.l.%.;.#.~ ' ~ r 4 , w h h V T Q %.1X*XoX{.-X-XQ z i ^ ;.3./ m i V &.&.&.",
"z x m S K I +.w.w.h.A.d.w.c.C.C.~ Q I I T ' &.w.a.a.c.h.a.#.%.+.L E I M h w z S H T #...X.F.R.}.%X@X{.G z B ' +.+.Q V V E 3.3.3.",
"C.A.C.P.c.,.x & 1 i E S V | #.;.i i r z K E x 4 & 1 V E ~ z r 9 M L ' u.A.0.X.| 8.u.A.w.{ I I ^ %X{.P.v t i z z 9 z ' :.0.0. .~ ",
"H.F.C.F.I.C.T * 2 f ' W ~ &.,.8.M z i S I ~ h , 1 w L Q T M i z T Q E h.F.C.,.&.;.t.H.C.0.K E E -X@X`.U z M z x h L +.:.,.3.:.3.",
"C.A.F.C.P.C./ 2 2 y ~ ~ ~ 3.3.8.i h z E ^ ~ f 1 ; f / ^ T b z g Q / E l.A.F.w.w.3.u.F.P.c.E ' T @X-X@X( g m i M z E 3.3.3.3.:.3.",
"Q I V 1 y h I I S ' A.oX/.m r 4 b.].&X^ z 9 , 9 g z h w 4 9 g g %X(.P.=.y.n.<.U M 9 @ * z &.&.^ 6 i z ~ L M K  .&.h.C.u.+.Q %.8.",
"~ Q K y h z T ~ T 3.}.&XP.h z i /.&X*X' x i r i z M M g r r z z -X{.(.l.S.P.<.U ~ z * - h &.3.{ r k i W / I ' %.3.u.F.F.a.#.,.&.",
"^ ^ ~ H M z S ~ E u..X2XR.M m t :X&XoXT i z z z g i h z i m z z %X@X@XG.S.f.&.' K M , 2 i &.w.8.M S z S / T X.%.3.t.b.A.c.;.0.8.",
"a.c.a.a.3.+.X.3.l.b.w.w.' 1 h z *X}.I.z , 9 i h t 9 9 z M I S z K W ' G v g S ^ &. .K M i K ^ / u.3. .M x m x f 9 M +.0.,.K V i ",
"F.F.F.P.F.l.w.l.b.c.;.8. .r m z :XoXE.z $ , i z i r r z V ~ T S w i z 4 ; ; S &.,.O.~ Q V L E / P.b.c.x r z 7 1 * z ..w.X.z z i ",
"F.C.F.C.A.C.C.F.H.b.;.;.' M i r *X*X.XH 2 2 r b z x i z h E ^ Q M B h 4 1 4 I 3.6. .T ~ E ^ E I G.H.F.T z x 6 4 4 S &.0. .h z h ",
"C.c.h...#.;.c.A.0.&.~  .&.b.t.8.A.I.R.H 9 2 4 t z x 9 9 9 ~ O.+.f f 9 2 9 r ~ ,.%.E x V T +. .~ { #.&. .Q ~ Q #.u.C.P.c.3.' ,.0.",
"F.C.t.L L ~ w.C.h.+.H K :.&X}.F.w.c.G.K M r 9 i h i * ; 4  .3.3.f x i 9 i h { 8. .L i i H :.&.' S T T 8.&.X.t.}.&X;X:X].A.u.C.B.",
"F.C.F.{ Q ^ 0.C.A.w.L ~ X.1X+X&XF.C.P.L z f h z x w , , i %.3.3.m h m f x x ' 3.3.' g M V 8.3.3.^ Q ~ X.3.0.C.*X+X*X;X;X.XA.c.I.",
"w.8.3.;.#...%.t.a.c.a.3.%.h.l.C.c.u.t.f w y T  .E M z V Q t.0.8./  .&.^ T L W ~ / ' T L H X.,.&.%.X. . .&.0.C.}.I.C.0.u.a.w.;.;.",
"h i M l.C.t. .+.,.b.:X~.w.f i i 3.;...2 ; 1 X.c.l.&.| +.0.A.u.w.I.}.*Xc.+.' M r m ~ %.O.Q | ;.;.A.C.0.+.+.,.h.A.h.^ ; ; 7 i y 9 ",
"M z z a.P.b.3.:.3.l.;X*XI.i h V &.,.%.y 2 ; ;.R.A.0.%.,.u.H.H.b.]..X*Xb.,.&.I h h T 3.<.%.#.3.,.F.F.l.3.%.8.d.A.c. .* ; 7 M x h ",
"i z M #.h.w.3. .&.u.}.oXE.T K V 3.w.3.b w 2 { h.l.t.w.&.3.0.c.l.}.E.P.0.%.&./ T U ~ :.0.f.7.0.:.b.P.P.b.d.0.f.P.R.8.9 9 6 y i i ",
"m i 4 $ * , 9 ,   m w.C.I.b.b.w.Q | 3. .~ M V V ^ #.:. .T S Q E ; * & r V ' w.b.7.$.0.l.G.n.l.7.P.].@X@X(.B.n.P.&Xx.g 9 ; $ ; 2 ",
"z z g , * ; 1 ; 2 ~ C.b.b.A.F.c.,.:.3.~ P E L T I | ,.,.X.K ~ ~ 2 1 * M I ' 0.P.V.l.b.A.P.A.B.f.(..X-X:X-X@X{.&X.Xl.M v g , , , ",
"z z b 4 , 4 , , , U A.H.H.F.C.C.&.&.0.| T ' T ^ ' { &.w.3.T ' T , 4 , I ~ ^ 0.F.B.B.P.A.A.A.P.m.-X,X%X@X-X-X@X&X2Xc.b i g * 2 , ",
"Q E T V i 9 ..H.oXoXc.a.%.8.b.C.H.l.;.^ X.:.S 2 & 9 ' &.&.x i 2 ~ ..3.6.+.'  .0.b.l.,.+.Q 0.h.F.h f 9 H X.&./ h r M 8.c.a./ L z ",
"^ ^ ^ H z i 3..X*X}.H.C.a.a.A.F.F.F.h.+.:.0.S * , z +.3.+.z x h X.&.3.3.:.&.0.b.F.c.3.3.+.l.c.P.x h i ^ :.3.Q i i ~ C.P.c.Q Q I ",
"E E T x x M h.&X*X~.H.A.F.I.F.C.C.H.A.0.3.&.S 9 , M ,.0.X.z x y w.8.&.&.,.8.d.A.G.u.&.&.3.R.A.A.h z z &.8.3.L M M X.b.A.l.^ Q T ",
"V x f , 1 4 { u.;.{ E { 8.}.R.A.E '  . .~ K M K  . .| T V h E ^ b.l.w.,.u.c.C.C.u.' M K { C.c.w.$ 1 9 0.u.0.,.u.A.u.S z x I #.8.",
"m i r * ; ; E 8.,.| H E %.:X+X~.K T E / ~ L / ,.3.X./ I H H Q I C.b.h.w.c.F.F.C.b.{ r f Y C.C.a.@ , , d.C.h.F.}.1Xc., * 9 ..%.;.",
"f z i w 6 6 I ;.#...E / +.&X;X&XE ^ E E T ~ X.,.3.O.~ ~ ~ T ^ T C.P.H.C.A.H.F.C.H.;.V x I C.P.F., 4 , 3.A.C.}.*X&Xw.4 4 i t.3.,.",
"| ..{ +.' T ^ ..3.c.c.h.3.u.b.c.I E H H I ' u.H.l.0.+.w.0.8.3.#.%.w.w.#.' / / / { ^ V V V w.b.A.Q P M  .#.3.0.0.w.{ S T | E.b.h.",
";.;.%.A.C.h.%...#.C.*X}.x. .3.:.^ E V H K Q b.2X~.b.0.b.P.H.b.w.' 3.&.T z r r y f L E E L a.b.H.w.%. .L S ^ T / L K  .,.h.:X].I.",
",.8.,.C.F.A.t.,.3.c.:X&X].3.3.3.E ^ Q E Q / A.+X&XE.P.b.P.A.H.C.&.3.3.C h z f z z S ~ ~ ' B.A.A.&.0.&.' T ~ W ~ E | +.3.l.;X*X*X",
"0.w.;.#.#.,.&.X.+.3.l.l.u.3.%.+.x V V 8.w.#.a.I.P.b.%.&.%.,.w.w.0.3.&.T ^  .~ T K H { X.3.3.3.3.0.l.b.l.w.&.+.:.u.w.3.&.&.P.P.].",
"I.C.8.V i x E E S i 9 i P w. .' @ & ; I.:XE.,. .3.~ - , ; V I { ;.+. .%.u.F.t.:...{ u.A.c.S i 6 P.(.@X-X&XP.V.Q.&XP.3.X.{ a.c.F.",
"A.A.c.H h h I E Q H M z B ;.%.w.; 1 2 I.:X/.l.8.:.~ , , 9 I ^ L w.,.%.l.P.R.w.,.8.w.A.F.w.f x f {.@X=X:X=X{.`.@X:XE.3.3.,.C.C.A.",
"C.C.F.~ M i K ~  .T H m K +.X. .i x z u.}.E.C.,.,.~ 9 i B S ~ K | ....u.l.w.&.,.+.w.c.c.%.L E L {.(.T.T.(.].^.Q.H.c.8.w.t.l.l.l.",
"I.F.A.L i 7 S ' &.3.w. .H i i M I.A.&.z 9 i 8.H.h.%. .&.+., $ . . & ; y h y f K Q { T I L 3.c.C.W P B b G T S k w K 3.c.c.{ K z ",
"A.C.A.^ M z T &.8.3.;.;.| h h i C.C.c.S M z 3.b.c.8.+.w.X.* , , ; 4 4 i z r C T ~ ' T E ^ C.F.A.~ ~ U G W ~ K z h ' C.C.l.E ^ E ",
"F.D.C.T i M ~ w.,.8.+.0.+.z m x P.F.P.K z m 3.P.H.b.,.,.| 4 4 * * , 1 y S g K Q E Q ~ ~ { A.F.F.T ~ E W ~ ~ S h k ' H.F.C.T / E ",
"E E h ..a.c.oXoXI.;.' #.X., * o h T T y 1 . & 9 x L ,...K 9 i M w.+.~ +.t.P.V.S.0.^ M I / L H x #.c.C.w.+.' T { ,.{ i r i 3.l.H.",
"^ ^ H 8.F.F.oX1XoXh.;.3.+.1 ; & K E E 6 & ; 7 h x T w.;./ i h z ,.;.+.u.m.P.m.V.C.%.L E ' ^ ~ L h.A.C.a.3.&.+.#.%. .z f V l.A.A.",
"E ^ { w.F.F.~.oX*XF.a.8.' 2 2 , T ~ ^ i 1 6 w f V L ,.,.X.M M x #.8.&.B.S.m.m.S.F.w./ E L T ~ T C.A.C.w.,.&.3.3.3. .z z Q A.I.C.",
"/.~.~.R.A.w.;.,.c.a.c.w.:.' 8.u.H x f { a.I.a.+.Q H T ~ ' K S h L ' ( f.n.7.f.V..XA.;. .Q ^ +.%.*X~.C.K M H x.~.b.' & 4 f  ./ E ",
"*X:X*XI.C.a.%.+.;.h.P.b.u.w.H.P.y i i A..X&XA.3.;.Q L L ^ Q T H M K T c.S.f.V.`.*XI.8.#.| ' 3.3.*XoX}.H f i c.&X;X,.$ , 9 ^ E L ",
"*X1X&XR.H.A.u.w.;.a.A.A.C.A.P.C.M V f H.;X:Xb.&.,...{ Q E ^ / ^ ^ ' ~ u.V.S.(.@X*XH.8.;.,.;.6.<.*X*X}.^ V x c.*X}.w.4 4 6 E ^ E ",
"u.w.w.w.b.C.b.a.8...'  .X...{ E ^ +.;.b.c.a.' Q T Q ~ I H E { | w.w. .#.6.p.3.$...| ^ {  .{ { E a.C.C.c.a.3.3.l.A.a.E H z i x f ",
"~ E L +.c.F.H.C.C.^ i f M M y y w.c.P.8.,.&.h i x H T E I | ;.8.A.A.w.#.+.<.C , & w V Q ~ Q E V | #.%.}.*X}.&.&.;.8.,.#.T & ; , ",
"E Q ~ u.A.H.H.C.C.%.f x z x m z F.F.C.w.;.0.E h z V { Q ' 3.,.3.C.F.C.8.3.,.G 2 ; f E ^ Q T E ~ &.8.3./.1X+Xb.3.8.&.,.8...1 , ; ",
"K L T 3.w.3.&.%.;.;.E L M L ~ ' C.C.c.w.t.C./ y r i K H ~ t.0.;.#.;.3.u.t.&.~ M ^ ^ E K L ^  .X.0.0.:.h.P.I.c.8.%.%.t.c.u.f i r ",
"x z f Q E M y r i ^ ;.#...u.b.V.H.b.t.a.].:X+.& $ 4 K ^ &.A.c.8.9 i V u.c.t.3.u.F.w./ H H ^ ..%.E.C.0.| ..;.;.&...3.E..X~.T K S ",
"M x z E ~ E V x x E 8.#.3.b.F.P.b.A.F.}.&X*X#.9 1 i K T | b.F.C.i f z l.F.b.c.P.A.0.^ T ^ ;.w.w.b.c.C.3.w.8.;.8.&.l.+X:X].~ Q W ",
"Q L V T / #.I m V K 3.0.c.a.u.a.b.l.u.I.}.P.{ w r V L ~ ' u.b.c.H L V 0.C.P.C.h.l.&.I P ^ 3.&.+.C.l.A.u.w.%.;.a.h.C.~.~.C.Q ~ T ",
"A.b.t.w.a.C.;.E S I u.h.a.H r 9 4 r V #.&. .' [ ;.{ m r 4 S T T ,.&.~ 3.u.c.;.I S y . , h #.+.' ~ | 0.c.C.a.a.H.oXC.^ H m h I ' ",
"C.C.c.l.c.F.&.~ ~ ..C.C.a.z z i z f z X.,.%.+.&.&.' h z h ~ ~ Q 3.,.&.t.C.A.3.~ T M % , z 3.3.+.&.&.3.b.C.C.I.+X+XC.Q ~ I E Q T ",
"F.A.H.H.A.A.&.^ ~ &.P.C.l.z M z z z M +.w.&.3.0.3.| z V z ~ ~ W 3.&.w.c.I.C.&.Q W S , 2 i &.w.&.,.w.&.C.F.I.}.*X*XP.Q ' L ^ Q ~ "
};
