/* XPM */
static char *_1a2d49d812641cc8d1b6c1adadf8b3eVYq32BDyFgrcvoQB[] = {
/* columns rows colors chars-per-pixel */
"64 64 147 2 ",
"   c #363634",
".  c #373936",
"X  c #393936",
"o  c #373938",
"O  c #3C3D3B",
"+  c #403F3D",
"@  c #3E403E",
"#  c #40413E",
"$  c #3B3F40",
"%  c #3F4140",
"&  c #434342",
"*  c #464847",
"=  c #494947",
"-  c #454648",
";  c #474948",
":  c #4B4C4B",
">  c #4E504F",
",  c #50524F",
"<  c #4B4F50",
"1  c #514F50",
"2  c #4F5152",
"3  c #535554",
"4  c #565857",
"5  c #585856",
"6  c #565759",
"7  c #575958",
"8  c #5B5D5C",
"9  c #5E605F",
"0  c #60605E",
"q  c #5E5F61",
"w  c #5E6262",
"e  c #626565",
"r  c #656867",
"t  c #696967",
"y  c #646768",
"u  c #656A6A",
"i  c #6A6C6C",
"p  c #6E706F",
"a  c #6B6E71",
"s  c #6E7172",
"d  c #727474",
"f  c #767877",
"g  c #747778",
"h  c #767979",
"j  c #7B7D7C",
"k  c #7E807F",
"l  c #80807E",
"z  c #7D7F81",
"x  c #7F8281",
"c  c #838584",
"v  c #868887",
"b  c #888886",
"n  c #848788",
"m  c #868989",
"M  c #8A8B8B",
"N  c #8E908F",
"B  c #90908E",
"V  c #8D8F91",
"C  c #8E9191",
"Z  c #949494",
"A  c #969897",
"S  c #999997",
"D  c #969699",
"F  c #979998",
"G  c #979999",
"H  c #999B9A",
"J  c #989898",
"K  c #9F9F9F",
"L  c #9C9D9C",
"P  c #9EA09F",
"I  c #A0A09E",
"U  c #9D9FA1",
"Y  c #9FA2A2",
"T  c #A2A6A7",
"R  c #A5A7A6",
"E  c #A3A4A4",
"W  c #A6A8A7",
"Q  c #A5A8A7",
"!  c #A8A8A6",
"~  c #A5A7A8",
"^  c #A9A7A8",
"/  c #A7A9A8",
"(  c #A7A9A8",
")  c gray66",
"_  c #AAAAAA",
"`  c gray68",
"'  c #ADAFAE",
"]  c #AFAFAF",
"[  c #ABACAB",
"{  c #AEB0AF",
"}  c #B0B0AE",
"|  c #AFB0B2",
" . c #AEB1B1",
".. c #B1B1B1",
"X. c #B1B3B2",
"o. c #B2B2B2",
"O. c #B3B4B4",
"+. c #B6B8B7",
"@. c #BAB9B7",
"#. c #B6B6B9",
"$. c #B7B9B8",
"%. c #B7B9B8",
"&. c #B9B9B9",
"*. c #BBB9BA",
"=. c #B9BBBA",
"-. c #B8B8BA",
";. c #BDBDBB",
":. c #BBBDBC",
">. c gray74",
",. c #BCBCBC",
"<. c #BDBFBE",
"1. c gray",
"2. c gray75",
"3. c gray74",
"4. c #BDBDBD",
"5. c #C0BEBF",
"6. c #C0BFBE",
"7. c #BEC0BF",
"8. c #BEC0BF",
"9. c #C1C1BF",
"0. c #BEBFC1",
"q. c #BEBFC1",
"w. c #C1BFC0",
"e. c #C1BFC1",
"r. c #BFC1C0",
"t. c #BFC1C1",
"y. c #C0C0C0",
"u. c #C1C1C1",
"i. c #C2C0C1",
"p. c #C0C2C1",
"a. c #C1C3C2",
"s. c gray76",
"d. c #C3C3C3",
"f. c #C2C4C3",
"g. c #C1C2C4",
"h. c #C5C3C4",
"j. c #C3C5C4",
"k. c gray77",
"l. c #C5C5C5",
"z. c #C6C6C6",
"x. c #C2C2C2",
"c. c #C7C9C6",
"v. c #C6C6C8",
"b. c #C9C7C8",
"n. c #C7C9C8",
"m. c #CAC8C9",
"M. c #C9C9C9",
/* pixels */
"c m f t y y u y u a n x V n n n c v c c v c i u w u i u u 4 O X O # J h.1.f.g.Z u V t.t.t.t.-.u w a u u w a w a w a u x x v x M ",
"c m d u a u a u u a x x x n n n v M c m m c p i u u u w u 4 O O + # Z h.5.i.0.Z u V t.t.j.t.| u a u w w u a u w a u u x m m v v ",
"m m d y y u y y u a z z g g h g f / ! Y c v j g p u u u i 4 O # O O p b n M M j w s A A A G C a u 6 6 q w u a a w w p f i k M x ",
"n M d u u i y i u w w w u u a y w :.h...b c m m k u a u i 4 O X X O # O $ O $ 3 a w a a y w a w a % % 2 a w w w u u u u 9 k v v ",
"c n g u u a y i a i u a y u i y u =.;...M c M M k w u w u 6 @ @ O O O @ $ # & q a w w w u w i w u - O > r r i a r p i i k k k m ",
"y i u u u n c m c n n n d u u u u %.i.c.,.8.i.r. .M n s u 6 O . @ o 3 p t i y y w u s a u u 9 @ @ o # , r r u w A f.9.8.8.8.c.c.",
"y u y w y n n c c M n M s y y y i X.w.i.h.m.f.1.( c x u w 6 @ @ @ @ 6 i y i w u u a w y w a e @ . @ X : r i e i N 8.i.n.8.8.9.=.",
"3 2 2 6 6 n n j d f s g a y a u e Z J ! 5.w.1.k.{ n M u u 6 @ o . # ; 2 3 w a C Y G z x g w e O @ X @ p Q Q g i h N m 8.f.;.c.8.",
"# O X O @ v c f u y i u w a w a r r r N 8.i.f.1.{ c b t t 5 X X @ O + X & r i R 8.=.c c p i 0 O O + @ l 8.f.v e 3 * X ;.9.9.i.i.",
"  O 5 5 8 v v f d i s s s s u w 9 e w m X.X.i.f.[ c c d p 0 O # O X # O & c c ! 8.#.v v f p i O O # O c i.+.A c p   # } ` @.8.i.",
"# O t l v v v v n n c c m m h % . @ @ 0 b M X.i.{ v b b l p X # @ O # O : i.k.d.c.X.v m v v j . O X X k k.r.f.f.I +   # O N c.i.",
"O + p c c c v v c c m c M m x o @ @ . 9 c m +.j.( b M b l t + X o O @ X : i.i.1.i.X.v b c v j * + O & c 8.f.8.8.L # # #   m i.1.",
"O X b } { 9 8 h v v b b m k x % @ @ X e m x H H A v l 9 0 , X X 9 9 8 q 8 V m } 8.+.v v i 8 e p p 9 7 p M Z k k t O   & & n 5.k.",
"+ O I 9.8.@ o p v b c c m m x . O X O 0 m x V m c m v & X # @ # u w y y t y r Q f.+.v c 6 @ > v c g i t i t & O X + +   O M k.w.",
"t t S } { @ . p x b b b k k d O O O & 6 x x x x k m v 9 3 : X O x x x z m e r T r.+.Z A p 2 9 c m a y i c j i i 8 O O O & M i.1.",
"9.9.b + @ o * p b k l b 8 X O @ O O @ ; i i w u k k b k l t # # r.r.v.0.=.u u Y 8.j.8.8.P v v v n a i C k.9.c.5.L O O O O M r.i.",
"d.9.M O O O O d n n n m 8 $ O O O @ O > e i u u j c b c b t + X r.r.f.r.5.u e T i.=.i.k.A v m v n g u C i.r.i.9.L & +   # M 6.9.",
"5.;.&...#...[ #.|  .m c h j d @ @ 8 8 e i u w u 9 2 > > , = X + x j _ i.1. .%.+.c.j.f.i.%.%.( s a w y V i.g.1.k.I 0 e # X , t t ",
"c.k.1.i.1.i.m.w.t.q.V n c m j O O e r r u u w s 6 O % O # O # # i r E i.1.M.v.q.%.f.8.1.i.j.:.e u u u C j.v.:.t._ e e & & & # + ",
"J ! E E E K L R | Y D U N b j O O r t i s g u i 9 : 2 @ # X O X w u H r.i.9.,.#.[  .i.r...T L e u u i c / / q.v.E i t ; = : : ; ",
"O $ O @ # O   q w x v.t.H m x % o w w s x x s u i u u % O O O X u u Y n.t.t.v.C p v 8.r.B i i t u u w u p t | t.T e e i i i e i ",
"% O O O O % & 6 a x t.t.Y M g o % w a z V x s u w i r % & @ O O u u Y t.q.t.M.D w x c.f.m t e t u u a i w u =.t.E i y e e r r t ",
" .` S j d h j s u a x x g i s y w x x x x x s u u i i 8 8 3 @ & w s x x m x k g i m :.r.+.#.` c x k k h u w x x J o.| a y A +. .",
"i.k.E c M c v d u s w a a w y y u c x V x x z w i w u i u 4 O O a w a w w a w a w m i.r.i.1.;.c v v v h u i u i Z g.v.i y Z q.j.",
"f.1.{ E L k c i w a u y y u a g d c c v M n s y a g d 6 5 : O O w u i u w i u x J E 1.f.f.k.` d p c n g y a a u Z k.i.A J Q c.i.",
"i.f.f.;.8.e e a a y e y y y a n m N v k n c s u g m x & O + # # u a w p u w 9 ' i.k.i.i.#.i.&.O + f V z q y y y D 1.k.k.i.i.0.1.",
";.9.9.=.j.i a y i q a y a y s n k c v c M M i e s x m * O O O   u u u r u p u P r.0.:.M.f.i.#.O # f n z u a u u Z %.M.&.,.k.k.M.",
"d.d.;.8.g.-.v.D i c 0.g.v.0.e.v.f.8.f.8.k.&.n i x v x @ & e c B x m { %.8.8.8.P t u i u 3 O & @ + # $ 2 y y u u Z i.i.; * M i.@.",
"f.i.8.c.;.9.v.V y n e.e.0.0.e.0.r.r.0.:.i.j.m e s v b * O 0 c c v b ! f.9.8.c.Z u u i w 3 #   # O # + : i y a a Z 1.i.& & c 5.M.",
"i.9.} H S E Y M y j Y ~ _ ~ T T E j.v.#.Y E p 4 9 p t t e v E R I Q P Q Q 8.j.B w s s i : O + # + c b c y u y w B c.d.#   f S S ",
"k.&.b O # e t y u y y y y w y u u | 0.~ u t * O X # O j c ! 1.k.i.c.Z t s 8.9.S u w e i : O +   O o.e.^ u a u u Z 9.1.=   + + O ",
"f.8.M # @ p i e y a y y u u u u y q.v.[ e r ; @ X & X b c ! 1.i.i.r.P w p c.r.A i u u r : @ O # + o.h.R i e y r Z 6.9.= &   + O ",
"# X O + X + + 8 y u i y ' r.+.r w u u u i t - + w m x i i u u y u u u u a u w 6 + X + X + & X + X #.e.e.i.i.r.i.j.0.z.& + X O O ",
"X X O + + # O 7 a w y i [ i.=.r a a w i 0 e = O 9 N x i w u u y w i u q u y y 3 & + + + X   + + % #.5.e.i.r.8.j.1.1.w.- O + + O ",
"# # O X O O O 5 y z Y T -.0.%.i w a i w 3 3 * @ > e w a i m ~ E ~ Y Y ` Y a y a a 0 X + 0 d t + O L K ..9.i.i.f.&.R E & & O O O ",
"X O O O + X X 0 u x 0.g.i.i.=.e u u u 2 & O O . @ @ % r w C h.0.j.v.t.t.#.w u z c z + + g b j + X z b K :.f.8.8.` c c O +   # O ",
"# = & X # X O , y x 0.h.0.i.%.u u s a w % % % % & O % u p Z &.1.i.1.&.5.q.a a g c d & = d c j O % f j L ,.w.i.8.^ l j 3 - - - & ",
"M b e O + + + # o g k.m.1.i.+.w u +.t.| 8 i u i e s u u e t e t i.k.! c n x c w + 6 z V c c c O X y t f m c c c p + = h j M l M ",
"M l e + # + # X + d &.5.r.n.+.i u %.t.' i s a w u i r w e i e i i.:.E c b M c e + 6 b b l c c O # q e p c c c M f   + l b M l m ",
"c M Z S I L S L L E d.k.i.:.=.Q Y T C Y ( Y Y Y V u u i e d f j Q P m i q t e 1 + 6 b c M b j 8 6 i u d m c m c p + # 0 t d c b ",
"c b ! d.5.i.i.r.r.i.i.i.r.i.i.r.j.j i Z f.8.8.j.Y a w y a g c b v c w @ + O O O O 8 c b c v j t u u w g m b m b d + O + O e l b ",
"M b _ h.5.5.j.i.i.f.r.f.r.i.i.r.r.Z c A _ #.+.X.G a y a d d c m v v k g d d d 8 + 1 j f v v c r u u u g b x x b p 5 8 + O t b b ",
"c c ^ d.f.f.i.1.i.r.f.r.f.i.i.i.i.i.i./ p r e r u w y n M c m m c v E =.8.k.i.B #   + X d v v r a w r s N v m m c b l # O e c c ",
"b M _ ,.f.i.8.j.i.r.i.i.i.r.r.f.i.8.r./ t r i r y a u z c c m c v c ' c.f.i.&.m X &   + f l j i w a u s m c m x b b c & % t c c ",
"c c M b M m M X.i.r.f.i.i.9.f.8.8.P M k e i h h h x z V m b m l v c Q 8.8.i.j...! L + X 5 0 9 e w a u s v x m v k g s 9 6 d v v ",
"b b h i r e r E i.r.i.r.r.f.9.f.8.k i i e r x m n n z n c c c m v v ( 8.f.8.f.i.6.} # X O O : i a u w g m m v v k w u a e f c c ",
"v c d r e c v _ f.i.8.f.i.f.j.9.9.k e u i i h k z c n z j l b c c c [ r.k.1.i.1.c.` t t 3 O * e u x x x x M x x k u s u w s m m ",
"b v g r d 8.8.i.r.i.i.i.i.8.9.9.8.k u u w u i u u y y $ # u c m v c [ 8.8.i.k.i.6.6.9.9.j O - t a X.t.X.m m M m m x n u a g M x ",
"v v d i p =.r.i.1.i.f.i.k.1.i.j.t.c i e e i r r t e i + O e b c c v Q 8.f.k.8.i.5.d.1.i.j O - u u +.t. .m m c c n n n y s g n n ",
"p p i w t v x c x A 8.8.d.i.+.v x u u e : - = * : - ; O O - 3 1 m m ( 8.1.i.1.f.9.} c b i q q y w x x z a s g i s a s e y y s a ",
"p u i 9 r r e t i k 8.8.9.f.+.w u u u w . . # # O + O O & O O O k c [ f.f.k.i.i.9.} u e e s a y a w u w u w i u y y y u u u a u ",
"u w x N A N N k i k 8.f.{ E Y i u a w 8 @ & O X q c z c c z c c M v [ i.1.i.5.9.d.O.8 8 c B M Z C u a a w 2 u e j C V Z C z a w ",
"w u P 8.8.j.8.S i c c.k.N r r e w a u 6 X +   # c 5.i.i.8.8.i.f.v c Q 8.5.d.5.d.9.! O # Q f.r.v.t.x w 3 % % e u D 0.0.v.t.Y a u ",
"u i Q 8.8.8.8.Z r c :.&.M i r i i t y w # # # O Z 5.9.d.i.i.i.r.v v Q 8.d.d.5.k.c.} O O T j.i.r.t.x i 9 % o e r D 0.v.e.t.Y y u ",
"w w P j.8.H H c x C k.k.;.X.X.X...#...Z + + A O...e.5.i.i.8.i.i.v c B Z Z Z Z _ 1.] + O i c c x x 4 * % o @ P O.#.e.v.e.0.Y u u ",
"p u P c.8.k l m m N k.5.i.8.d.8.i.i.5.~ O O #.9.5.d.i.i.8.8.f.i.v c m v c c M _ d._ O & 6 i i e s - @ @ @ % ` 9.e.q.v.0.0.T u u ",
"u u m Y H b c v M N i.f.f.=.i.i.d.i.i.' m M Y { { [ X.L I S L I b c B ! I E E O.9.} O @ > 5 9 r e ; # $ +   ] 1.v.e.k.5.j.U y i ",
"y u < @ & c M v v A i.8.9.f.i.i.9.=.i.c.i.1.L c c M l = # # # X c b ! ;.d.9.6.d.9.` O O O O * r i -   X & O @.w.e.w.1.d.v.T u e ",
"w s , @ % v l b c L =.=.k.c.1.i.c.9.j.r.1.f.A v k M b # X X # X c b _ 9.i.k.@.c.f.` O @ @ @ & u t - # &   # [ w.h.m.&.i.*.U s u ",
"b c e O   @ # p c j p i h c A i.8.8.j.r.f.k.c i h c l # + + # # X # O # 3 5.i.;.1.%.t e ; @ i c.c.6.h.^ # O # & < y y c M M c b ",
"c l t O % @ @ i M k u u j b Z i.c.j.8.8.8.r.k u d b c @ @ O # X + # X O - d.M.1.M.' u u 1 O t ,.6.h.d.K o & O O < u i c c c c m ",
"b b i 3 2 2 3 p f f u t c m Z R P ( { ( ( Y k p g v v 8 , : @ @ + # d S Z ;.1.` G U D U D V S E S d.5.! 6 2 6 3 q i i g g z m m ",
"c m d i a u w i r r r e k c c c M m x x M m p w k x x p r 3 X @ X # Z ;.i.c.k.Z u V q.t.i.i.] u i o.,.~ i w u u u u y y t f c c ",
"b m d e u w a w i r r r k c M c x m N x M x s u d m x i 0 9 O O # X S d.k.&.d.Z u n t.i.r.f.*.e y 0.g.T u s w u u u i y y f b c "
};
