/* XPM */
static char *fdc500290364418edf66f1bbd1a5bf34nvent2Ro8HWchTVy[] = {
/* columns rows colors chars-per-pixel */
"64 64 129 2 ",
"   c #42474A",
".  c #464A4E",
"X  c #484C4F",
"o  c #4A4E52",
"O  c #4D5255",
"+  c #4F5458",
"@  c #505457",
"#  c #51565A",
"$  c #555A5D",
"%  c #585C5F",
"&  c #575C60",
"*  c #595E62",
"=  c #5D6165",
"-  c #5F6468",
";  c #606467",
":  c #61666A",
">  c #65696D",
",  c #686C6F",
"<  c #676C70",
"1  c #696E72",
"2  c #6D7175",
"3  c #6F7478",
"4  c #707477",
"5  c #71767A",
"6  c #757A7D",
"7  c #787C7F",
"8  c #767B80",
"9  c #797E81",
"0  c #7D8285",
"q  c #7F8488",
"w  c #808487",
"e  c #81868A",
"r  c #868B8E",
"t  c #868B8F",
"y  c #858A8D",
"u  c #878C8F",
"i  c #85898D",
"p  c #888C8F",
"a  c #868B91",
"s  c #878C90",
"d  c #878C91",
"f  c #888D90",
"g  c #898D90",
"h  c #888D91",
"j  c #8A8E91",
"k  c #888D93",
"l  c #898E94",
"z  c #898E92",
"x  c #8B9093",
"c  c #8C9093",
"v  c #8D9194",
"b  c #8C9195",
"n  c #8D9295",
"m  c #8D9296",
"M  c #8E9396",
"N  c #8F9396",
"B  c #8F9497",
"V  c #8D9296",
"C  c #8F9498",
"Z  c #8F9498",
"A  c #909497",
"S  c #919598",
"D  c #909599",
"F  c #90959B",
"G  c #91969A",
"H  c #92979A",
"J  c #93979A",
"K  c #92979B",
"L  c #92979D",
"P  c #91969A",
"I  c #94989B",
"U  c #94999D",
"Y  c #959A9D",
"T  c #959A9E",
"R  c #969B9E",
"E  c #969B9F",
"W  c #95999D",
"Q  c #989C9F",
"!  c #969BA1",
"~  c #979CA0",
"^  c #979CA2",
"/  c #979CA0",
"(  c #989DA1",
")  c #999EA1",
"_  c #9A9EA1",
"`  c #989DA3",
"'  c #999EA2",
"]  c #9A9FA2",
"[  c #9B9FA2",
"{  c #9A9FA3",
"}  c #999EA2",
"|  c #9BA0A3",
" . c #9CA0A3",
".. c #9DA1A4",
"X. c #9DA2A5",
"o. c #9EA2A5",
"O. c #9DA2A6",
"+. c #9EA3A6",
"@. c #9FA3A6",
"#. c #9FA4A7",
"$. c #9DA2A5",
"%. c #9EA3A9",
"&. c #9EA3A8",
"*. c #A0A4A7",
"=. c #A0A5A8",
"-. c #A1A5A8",
";. c #A1A6A9",
":. c #A2A6A9",
">. c #A2A7AB",
",. c #A1A6A9",
"<. c #A3A8AC",
"1. c #A5AAAD",
"2. c #A5AAAE",
"3. c #A6ABAF",
"4. c #A5A9AD",
"5. c #A7ACB0",
"6. c #A8ADB0",
"7. c #A9AEB1",
"8. c #A9AEB2",
"9. c #AAAFB2",
"0. c #AAAFB3",
"q. c #A9AEB1",
"w. c #ABB0B3",
"e. c #ACB0B3",
"r. c #ADB2B5",
"t. c #ADB2B6",
"y. c #AFB4B8",
"u. c #B1B5B9",
"i. c #B7BCBF",
/* pixels */
"7 X . ; Q $ X @ 7 p $ % % [ 4 $ # 4 Q ; @ # e g @ # > 4.4 & % w q.% % * I V & $ - ! - & & 8 q - - & q 8 & & 8 q 8 + & q q & + 8 ",
"*   O p 7 @ . > v = @ @ 9 v % % % J 4 @ O ; ! # # $ i N % & ; -.: % & 9 I ; o $ q q + & - q 8 & - 8 q & & & q 8 & + 8 q & + & q ",
"% 0 @ O X 7 : @ @ @ w % @ $ ; w o $ # 5 , O @ % q % @ @ > 0 * * # w 4 = * * e ; + & 8 8 - - & q + 8 8 8 8 & & & q 8 & o & q - + ",
"$ I 7 # X > .., X % 4 ..@ X % I e   $ ,  .1 @ @ w [ @ O ; o.7 & = 2 o.1 ; $ F L & + & ` 8 + - q q & o & 8.8 + + q 2.8 + & %.q & ",
"; $ 4 % # = = : $ % $ 4 % % % % 6 @ * $ > 2 # ; % q ; % ; = 6 * 1 % 8 7 - > $ 9 + & & 8 8 & - - 8 8 & - 8 8 + 8 * 0 * * - & < & ",
"7 O # > o.@ @ @ 7 p % @ ; :., X @ 5 ! % # # a N $ $ ; ..1 @ * w 6.> # $ 5.W * o & ^ & + + 8 q & + + q 8 + + 8 q & & - q 0 + & < ",
"$ # @ J 4 # X = I , @ @ 7 v % O O c 4 @ # , [ * # @ 7 N % # : Q , % $ 7 ` & $ * q q & + & q - & & 8 8 o & + q 8 $ * 8 q & & & q ",
": e % $ % 7 1 % ; % w ; % @ , 9 % @ @ e 2 * @ * a = * % 2 e = * = 0 2 * * - a & + o 8 8 & 8 - q & 8 & 8 8 8 8 + 0 < & & - q > - ",
"%  .j @ @ , :.; O % w J $ % $ _ w X # 2 o.2 @ % e ^ % # * %.w # % 2 r.= = = r M = # - r.8 & + q %.+ $ > 1.8 * $ 0 <.- & + %.q & ",
"; % 7 ; ; % , 4 @ ; O 4 ; @ @ % 2 * % * 4 2 * * * 9 * : * # w % - - , 2 = - $ 3 $ # - 2 8 & & - 0 & & & > 1 = = & 8 = $ * - 0 & ",
"w @ @ , e.; o @ p w @ @ ; *.4 % * , q.% @ # ! v # @ : e., % # a w.$ $ = | r # $ = #.- + & 8 ! $ + + ] 1 & & 6 ) $ O & %.8 & O - ",
"@ @ % J 4 % @ , A % O @ w w ; X % L , @ o 7 I % % % v w o % > ` : $ O e M & # & q 8 # = & L & & + 0 q $ # - q < + + < q & & * q ",
", w @ % @ w 4 @ % % w ; O . % w % @ # q ; @ @ % w * % # 1 a % ; - r 2 $ $ % y & = $ 1 5 - = * q - & + < q : > O 8 > * * = 8 * $ ",
"; w w @ X ,  ., . $ w p @ % % Q 9 @ @ , q.> # # e c o @ * %.4 % $ 5 6.> % $ n R $ = < 8.3 = O q %.- & - H 9 # # 2 H : . $ | n + ",
"% % 7 % ; ; ; 4 % ; % 4 % @ % % 9 @ % * , , # % # 9 # * = % 9 & - > 2 2 * , = 1 $ - # 1 < $ < - 0 - & - > 1 & : $ 5 * = = : 1 # ",
"7 X @ 4 *.; @ % j N % @ %  .4 @ o 7 %.o @ % A A # # : e., % % q 7.@ - % X.r % = - | - = = 8 L & & < q < $ $ < q & + $ q 0 + + > ",
"% @ % I 4 @ @ , Q ; @ X 7 p % X % J > @ X 2 S % % @ l a * % & %., # # 7 F & & & q 3 - & - F - & & 0 q + & + q < $ $ 1 F & + & C ",
", w % @ @ w , @ % % w % % @ , 4 @ @ @ w , % # % a ; ; % 1 5 & % # k , % # * F - & - 3 q - - - q - - + < 0 - * * 0 - = + - 0 - & ",
"%  .p % @ ; 1.; @ X p Q X @ @ -.4 @ @ ; *.; # % a l @ % ; L 5 & * 5 ` ; # # k ` # & & q.8 # # a ` - + - %.0 & # 6 %.$ $ + ' q = ",
"% % 7 @ ; ; ; 4 % ; @ 4 ; % % @ 7 @ , ; 2 , $ ; # 8 > : ; : 3 # ; ; 5 , # 3 @ 3 & - - < < - < - < - + < - : - - - 3 = # - & 2 = ",
"w . % 4 1.; X % j  .. @ % -.4 X $ 4 2.& $ % Q j # ; : ` , # # F :.# # % %.a & # - ! - # : 3 L & - + q 3 + * 1 q # + - q 0 & o < ",
"@ X @ J 4 % @ ; S % X X w v @ @ & ` 1 = $ , S = # @ F q & # ; ` > @ * 5 L * o & 8 8 # & : L : & + q q & & = q - & & 5 6 & . - q ",
", p % @ ; 4 4 @ @ @ p % % . ; w @ $ o 0 > * * $ a @ ; @ 3 7 * % # a 3 % & & a & # & < 8 & & & a < - + : q * * $ 0 > = $ - q * - ",
"% _ p X   , :.; X . p I @ X @ S 8 @ # > :.& @ # q a # @ : ` 5 @ % , %.* # # a F # # # ^ 3 @ & 8 q & + & q q $ & 3 6.= + # X.q # ",
"; % w % ; % ; 4 X ; @ 4 @ % % % 6 O = $ 1 ; * * # 7 # % * ; 1 % > % 7 > @ , @ , @ * * # > & & * , # & ; * , # ; - < : + - $ 1 @ ",
"7 @ . 4 :.; X @ p I @ @ % N 4 @ $ q L O * # l a o # = q.; o * 3 S % o % ..7 # @ % ! * % # 3 k # # & ! : o # 4 F & # = x 7 @ $ < ",
"; X % Q , @ X , J ; @ @ 7 w @ % * A , # o , ! O O # e q o @ * ` ; % @ 7 ` % o # q 3 # * * ! - * # q e ; # > a % # & 5 B $ & # A ",
"% w ; % % w , @ % % w % @ % , 4 $ $ @ q ; # o % q @ # O 3 5 % X @ 7 ; @ @ ; a % @ ; 5 8 : & - q ; % # : e % * % q < = # : 0 ; o ",
"% -.7 % @ , :.; X X p v @ . ;  .3 @ $ : %.* o O F a # # # ^ ; @ o , F % # o N a @ % # L 3 * # q L : % , Z 5 # & 0 4.= * & c i # ",
"; ; 4 % ; % 4 4 @ , @ 7 ; ; ; ; 8 $ , $ 4 > o , o 7 @ * ; * 3 @ , # ; % * 7 % , - # ; > 3 * # - 5 * * % % 9 ; * * 5 % O & $ 2 * ",
"4 . @ , I @ @ @ p w X @ %  .4 @ @ 7 ! $ @ # F 9 @ X , u., X @ q e.o X % q.a o o & %.- # # 8 L * ; # %.5 % o , ` ; o = k 9 #   > ",
"@ X % 7 , % . ; j X % . 7 4 @ @ # 0 > @ @ > k % @ # a 7 # # % F , @ % , l @ @ # 8 8 # - * l - & o 7 e # * = e : $ % , i O # * i ",
"; r @ @ @ 0 7 @ O @ r , @ $ , R $ + + M 0 & + & H < & + > +.& $ o F e % @ @ a ; & # 3 a & o # q > * & - e & @ # e - # @ # l & & ",
"@ 7 f @ @ % H 2 X @ 4 X.% O % 0 q $ + + X.< + & 8 =.$ + & Y B + o % q., # & 5 F # # # %.8 & & , %.# # * k q # & * ` & # & q k # ",
"; $ % % , = X % O 2 @ % @ , = $ $ & 5 = $ = < 3 $ = $ < : - : & a % % , : 9 @ ; * * : # - & > # - & * > & * & & * * @ * > * & ; ",
", O $ 0 H @ % $ R 0 X . % r.; X + f R $ + & 1.q $ O 3 9.< + $ R Q @ o ; u.e @ o * q.* * # e k @ O # ! > @ & , l O & * ` 3 @ @ : ",
"$ % @ r ; O X > 7 O @ @ 6 % % @ + 6 + = & > q $ $ + 8 < $ - - q & ; & : q o & & 8 - o & & 9 & - & 8 3 - - * 5 & & $ * 8 $ # - 9 ",
"% X.; . @ 7 M @ @ % H 2 O @ > #.- + + 0 q & $ + X.0 + + 2 ) = O o F l @ o % F * & # 1 l @ & & e 3 @ * * F : * @ a 8 $ $ & L $ # ",
"$ 7 f % X % x 4 @ . , Y @ O O 6 q $ . & ] 5 . & - ] < + - 0 B $ % & L 8 @ # : L # o # ` 5 @ & , ` * # * q F @ @ $ %.< O & 3 F # ",
"2 @ % % 0 % % @ % 0 @ @ % , 2 @ & $ q = + & < q & $ & 0 < = = = l % % # : F # # & , * @ & & > & # * & 1 & @ @ 3 & # O * > O $ # ",
"; O @ r H $ X @ H , X O 1 ) % O $ M B $ + - 1.5 + $ 9 1.= + $ +.L @ @ * u.3 @ O : %.# O # l 9 & o * ` & @ & 8 F # # & %., @ o 5 ",
"$ $ @ 2 $ % @ = 2 O , @ , % $ $ + 2 $ - $ < 1 & : $ 3 : : $ : 6 & ; & , > @ * @ 9 * * o - 3 # # o 8 $ % % % 3 o * # , - # * @ 3 ",
"= | > X O 0 x $ $ + u 6 O @ ; +.= + $ q x & O = ) 6 : $ : w.& + # e F # o # L < # O < ^ # # * F 9 O & - L = # & q e # & # %.- @ ",
". , w @ X @ w 4 X $ $ u > O $ 6 q & $ & q 2 $ O : H = & & 6 q & @ & l 9 o @ - ` & o & q a & # - L - @ $ 7 q & * & ` , # & > a & ",
"7 @ @ @ w @ O % 2 w + * + 8 < + + + f = & & 2 q $ $ $ q 2 O + = l * # o 8 L # o # 3 : & # & 8 * % * 2 1 * & * 8 - # O > 1 # # & ",
"@ X @ u r % $ % ] 2 $ O 5 ;.- + & R 0 + + & 6.2 . & 0 R + + + ;.q X   , u., o # 1 2.& # * l 9 # # : ! # @ & e l @ : : L - o O 3 ",
"@ ; @ % @ ; $ ; > + 1 + : & + = + - + < & - = $ 3 + < + > : $ : @ , & * - @ - # 3 o & & * - * : * 1 : * & - - & 1 * * * & * - 1 ",
"% H , O @ 0 +.; + $ n r $ O = 1.< + + 0 R $ + + H q + O > 1.2 O @ 8 ` @ o # L 8 # # 1 %.& & * F e $ # > %.> * # a a & & o %.> @ ",
"$ % w $ $ % 0 6 $ % $ r % + % > q % # = r 4 + + $ q 1 + & 5 q & + & 8 8 o + 8 q + o 8 9 8 o . 8 k : & & 8 8 + # - a - O # > q + ",
"7 % $ % B % O % 2 u = O % 0 6 + O < q 1 o % 5 q + + $ q 5 X & 2 ! + + o 8 %.o o o 8 & & + 8 9 + & + 8 8 # # - q & & . 8 q o # & ",
"$ O = r r + $ = +.2 O . 4 #.O . $ q 0 # $ = 1.= $ O q ) $ $ & +.q + o 8 y.8 o & 8 9 + + 8 9 8 . & 8 ` & o & L 8 & + 8 ! & O # 8 ",
"% ; $ > + > % $ % O , $ = X ; > o = + 1 * % = + 5 $ > $ > < + - + 8 & + 8 o 8 & & 8 + 8 + 8 + 8 & > & - 8 - - & < & & # * 1 - - ",
"% 1.6 $ . 6 =.% . X f r O O % ] 2 # O 0 R = $ % q q + O = 1.< + + 8 ` &   + ! 8 + & 8 q 8 + & 8 8 & - 8 l - # # q F # O # ..9 & ",
"$ % 0 % ; $ 2 4 $ $ @ 1 > $ + ; 0 $ $ = 9 5 O = : q = * $ > r $ - + q 8 8 + 8 9 + & 8 8 8 & & 8 a & & # 8 8 # + : i : * & 1 q $ ",
"9 % % % x ; X % 1 M O $ = r 2 + # , q % # + 7 q $ X > | 6 X $ 1 %.+ & - 8 ` + + 8 q 8 o & & q & * o 8 8 o + - a O * & 5 e O # : ",
"$ O $ B 0 @ = ; | ; $ O 0 X.O + $ ) r # O 2 1.= O $ r q & O = 6.8 & o < %.8 & o 8 q + o & ` 8 + # 8 F o & + a 8 * $ 4 ! * * $ Z ",
"$ 2 $ $ + 6 ; $ $ ; 6 % % $ > , $ @ = 5 ; % % * 7 # % $ : 5 * ; + 0 > + & $ 2 & > & - < - & & 8 - & # & 2 $ = # 2 > = * : 1 & ; ",
"% X.4 + O 4 X.; $ O B ) $ = O 1.6 % O 7 ;.= $ # B n = $ : 6.4 $ + q <.- & # { q + + 8 ! - - & q m & & < %.2 + * w %.= - & <.0 # ",
"% + 6   $ + 2 2 O ; = 9 $ $ % = w = $ % 0 6 $ ; > q > # , 1 q $ - $ q 2 + = < q - & - q 8 + - 8 a : & & 3 0 + * > w > = = > 9 : ",
"7 + O = X.$ . O 0 H % % $ M 6 $ @ > R = O % r R % $ : X.6 $ * 6 2.< + & q q & & + q - + - - q - $ & q 3 = % 3 Z : * * 8 0 * * @ ",
"$ O O H 6 O $ ; Y ; X $ 9 H $ $ % R w = $ , r.% % = q ] % $ ; #.5 = $ 6 t.& & & q q 8 & & F - - & 8 ` & * & Z 8 # = > T % % # I ",
"= 6 @ O O 4 = O = @ w $ $ $ = 6 $ $ % 2 > % % : 7 : ; $ 5 5 , : = 9 * & = - 3 & - + 8 - - & - 8 & < & < 5 < = $ 8 = = * > 5 * % ",
"+ X.4 . @ , X.= X @ r n $ $ = R 6 # O 6 X.: $ $ ;.q % $ > 7.5 $ $ 6 i.& & & T F & & - 2.- - + L ` - & * 8.2 - & 9 T = * $ <.9 % ",
"% % 6 O O $ > 2 @ ; $ 6 = $ $ ; 0 # $ = 4 1 @ ; = 7 = = = > q * : = 6 3 & < : q & & & 8 8 & > : 8 - - - 2 6 $ * = 0 , $ * : 4 % "
};
